<svg xmlns="http://www.w3.org/2000/svg" xmlns:xlink="http://www.w3.org/1999/xlink" viewBox="0 0 398.92 398.92"><defs><style>.cls-1{fill:none;}.cls-2{clip-path:url(#clip-path);}</style><clipPath id="clip-path" transform="translate(-0.54 -0.54)"><rect class="cls-1" width="400" height="400"/></clipPath></defs><g id="Calque_2" data-name="Calque 2"><g id="Calque_1-2" data-name="Calque 1"><g class="cls-2"><rect class="cls-1" width="398.92" height="398.92"/><path d="M299.26,222.75H114.93v.58H299.26Zm-22.66-5.46v-9.06H281v-5.88H264.61v5.88h4.44v9.06Zm-21.29-14.94v6.24h0l-4.33-6.24h-7.57v14.94h7.09v-6.78h0l5.25,6.78h6.65V202.35Zm-24.57,11V212H240V208.5h-9.3v-1.42H240v-4.73H223.19v14.94H240v-3.91Zm-40.2,3.91h7.55V202.35h-7.55Zm-31.28-3.91V212h9.3V208.5h-9.3v-1.42h9.3v-4.73H163.7l2.2-2.21h-6.3l-1.19,2.21h-6.7v14.94h16.85v-3.91Zm-59-16.13h25.26v-7.17H110.82V176.35H100.25ZM117,210.67c0,1.29-.76,2.14-2.75,2.14h-3.4v-4.24h3.4c1.93,0,2.75.64,2.75,2.1m10.57-.44c0-3.13-1-7.78-8.55-7.78H100.25v20.9h10.57v-4.8h7c6.61,0,9.69-4,9.69-8.32m2.72-13h16.86v-3.91h-9.31v-1.4h9.31v-3.47h-9.31v-1.42h9.31v-4.73H130.26Zm11.62,10.52c0,1.11-.38,1.67-2.09,1.67h-2.33v-3h2.45c1.34,0,2,.38,2,1.32m8.09,9.52-5.19-6.17c2.35-.19,4.65-1.4,4.65-4.37s-2-4.4-5.38-4.4H129.91v14.94h7.55v-4.81h0l3.53,4.81Zm9.41-30.53c0-.48.56-.78,2.49-.78,2.15,0,5.31.48,6.71.61v-4a55,55,0,0,0-7.74-.69c-4.58,0-9.22.8-9.22,5.63,0,3.47,3,4.29,5.86,4.29h2.07c1.1,0,1.75,0,1.75.71s-1.09.62-3.43.62a28.14,28.14,0,0,1-5.62-.46v4.4a35,35,0,0,0,7.69.62c4.29,0,9.12-.58,9.12-5.39,0-3.18-1.5-4.87-5.92-4.87h-2.07c-1.38,0-1.69-.34-1.69-.67m12,10.27h15.23v-.58H171.42Zm7.28,9.76c0-.48.57-.78,2.49-.78,2.16,0,5.32.49,6.72.61v-4a53.62,53.62,0,0,0-7.74-.69c-4.58,0-9.22.79-9.22,5.62,0,3.47,3,4.29,5.85,4.29h2.07c1.11,0,1.76,0,1.76.71s-1.09.63-3.43.63a29,29,0,0,1-5.63-.46v4.39a35,35,0,0,0,7.7.63c4.29,0,9.12-.59,9.12-5.4,0-3.18-1.51-4.87-5.92-4.87H180.4c-1.38,0-1.7-.34-1.7-.67m11.83-8.13h7.57V195h-7.57Zm22.53,11.18a2.66,2.66,0,0,1-3,2.89h-1.71v-5.25h2c2,0,2.65.81,2.65,2.36m-.08-7.49H200.81v14.94H212.6c6,0,8.41-4.65,8.41-7.47,0-5.44-2.82-7.47-8-7.47M202.21,197h97v-.58h-97Zm90.34,9c2.16,0,5.32.49,6.72.61v-4a53.5,53.5,0,0,0-7.74-.69c-4.58,0-9.22.79-9.22,5.62,0,3.47,3,4.29,5.85,4.29h2.07c1.11,0,1.76,0,1.76.71s-1.09.63-3.43.63a29.07,29.07,0,0,1-5.63-.46v4.39a35,35,0,0,0,7.7.63c4.29,0,9.12-.59,9.12-5.4,0-3.18-1.51-4.87-5.92-4.87h-2.07c-1.38,0-1.69-.34-1.69-.67s.56-.78,2.48-.78" transform="translate(-0.54 -0.54)"/></g></g></g></svg>