<svg xmlns="http://www.w3.org/2000/svg" xmlns:xlink="http://www.w3.org/1999/xlink" viewBox="0 0 398.92 398.92"><defs><style>.cls-1{fill:none;}.cls-2{clip-path:url(#clip-path);}.cls-3{fill:#0f1177;}.cls-4{fill:#d90001;}</style><clipPath id="clip-path" transform="translate(-0.54 -0.54)"><rect class="cls-1" width="400" height="400"/></clipPath></defs><g id="Calque_2" data-name="Calque 2"><g id="Calque_1-2" data-name="Calque 1"><g class="cls-2"><rect class="cls-1" width="398.92" height="398.92"/></g><polygon class="cls-3" points="140.24 155.92 167.17 155.92 163.9 164.12 155.44 164.12 148.66 181.04 138.62 181.04 145.39 164.12 136.93 164.12 140.24 155.92"/><polygon class="cls-3" points="283.77 155.92 310.7 155.92 307.43 164.12 298.97 164.12 292.2 181.04 282.15 181.04 288.93 164.12 280.46 164.12 283.77 155.92"/><polygon class="cls-3" points="257.06 155.92 280.63 155.92 278.18 162 262.45 162 260.83 166.49 271.31 166.49 269.72 170.46 259.15 170.46 257.3 174.96 273 174.96 270.58 181.04 246.99 181.04 257.06 155.92"/><polygon class="cls-3" points="246.06 155.92 253.96 155.92 243.91 181.04 236.77 181.04 229.63 169.1 224.88 181.04 216.94 181.04 227.02 155.92 234.13 155.92 241.27 167.85 246.06 155.92"/><path class="cls-3" d="M197.52,156.46h24l1.75,2.91-3.93,9.78-3.54,2.51,1.52,2.51-2.94,7.4h-7.93l1.19-2.9-2-3.44h-7.7l-2.55,6.34h-7.93Zm5.39,6.08L201.29,167h11.07l1.65-4.49Z" transform="translate(-0.54 -0.54)"/><polygon class="cls-3" points="170.28 155.92 193.84 155.92 191.4 162 175.67 162 174.05 166.49 184.52 166.49 182.94 170.46 172.36 170.46 170.51 174.96 186.21 174.96 183.8 181.04 160.2 181.04 170.28 155.92"/><polygon class="cls-3" points="98.4 155.92 106.3 155.92 96.25 181.04 88.32 181.04 98.4 155.92"/><polygon class="cls-3" points="129.03 155.92 136.93 155.92 126.88 181.04 119.75 181.04 112.61 169.1 107.85 181.04 99.92 181.04 110 155.92 117.1 155.92 124.24 167.85 129.03 155.92"/><path class="cls-3" d="M241.54,210.41h-27l-.82,2.06h27ZM239,197,238.2,199H246l.81-2.06Zm5.69,5.42.81-2.06h-7.84l-.82,2.06ZM242.87,207h-27l-.82,2.07h27Zm-17.66-3.36h-8l-.82,2.06h27l.81-2.06h-7.85l-.41,1H224.79Zm1.35-3.36h-8l-.82,2.06h8Zm1.35-3.36h-8l-.82,2.06h8Zm20.26-3.37H221.23l-.82,2.07h27Zm1.32-3.36H222.55l-.81,2.06h26.94Zm.52-1.3.68-1.73H223.75l-.68,1.73Z" transform="translate(-0.54 -0.54)"/><path class="cls-3" d="M301.63,210.41h-27l-.81,2.06h27ZM299.1,197l-.82,2.06h7.84l.81-2.06Zm5.69,5.42.81-2.06h-7.84l-.82,2.06ZM303,207H276l-.81,2.07h27Zm-17.66-3.36h-8l-.81,2.06h27l.81-2.06h-7.86l-.41,1H284.87Zm1.35-3.36h-8l-.81,2.06h8ZM288,197h-8l-.82,2.06h8Zm20.26-3.37H281.31l-.82,2.07h26.95Zm1.33-3.36H282.64l-.82,2.06h26.95Zm.51-1.3.68-1.73H283.84l-.69,1.73Z" transform="translate(-0.54 -0.54)"/><path class="cls-3" d="M271.59,210.41h-27l-.81,2.06h27ZM269.06,197l-.82,2.06h7.83l.82-2.06Zm5.69,5.42.81-2.06h-7.84l-.82,2.06ZM272.91,207H246l-.82,2.07h27Zm-17.66-3.36h-8l-.82,2.06h27l.82-2.06h-7.86l-.41,1H254.83Zm1.35-3.36h-8l-.82,2.06h8ZM258,197h-8l-.82,2.06h8Zm20.26-3.37H251.27l-.82,2.07H277.4Zm1.33-3.36H252.6l-.82,2.06h26.94Zm.51-1.3.68-1.73H253.8l-.69,1.73Z" transform="translate(-0.54 -0.54)"/><path class="cls-3" d="M211.51,210.41h-27l-.83,2.06h27Zm1.33-3.37H185.91l-.83,2.07H212Zm-17.68-3.36h-7.9l-.83,2.06h7.88Zm20.37-3.36H188.61l-.83,2.06h7.91l0,0h19Zm-7.07-1.94H189.39l-.25.64H216l.8-2.06H209Zm9.69-4.79H191.28l-.31.81h18.94l-.46,1.26h7.9Zm1.32-3.36H192.56l-.79,2.06h26.89Zm.5-1.3.68-1.73H193.71l-.66,1.73Z" transform="translate(-0.54 -0.54)"/><g class="cls-2"><path class="cls-4" d="M176.46,224.58h1.59s-.27-4.54-4.81-4.54c-3.47,0-4.45,2.4-4.45,7.21,0,5,1.51,6.67,4.63,6.67,3.82,0,4.76-4.36,4.76-4.36h-1.36s-1,2.32-2.6,2.32-1.61-2.67-1.61-4.9-.08-4.81,1.7-4.81c1.56,0,2.15,2.41,2.15,2.41" transform="translate(-0.54 -0.54)"/></g><polygon class="cls-4" points="114.33 232.82 117.57 219.5 121.02 219.5 123.98 232.82 122.02 232.85 120.28 224.24 119.71 224.24 118.35 232.82 114.33 232.82"/><polygon class="cls-4" points="118.25 228.65 122.34 228.65 122.34 230.72 118.07 230.72 118.25 228.65"/><rect class="cls-4" x="88.22" y="230.78" width="8.08" height="2.07"/><rect class="cls-4" x="88.22" y="219.5" width="3.56" height="13.35"/><rect class="cls-4" x="142.01" y="219.5" width="8.08" height="2.07"/><rect class="cls-4" x="142.01" y="230.78" width="8.08" height="2.07"/><rect class="cls-4" x="142.01" y="219.5" width="3.56" height="13.35"/><rect class="cls-4" x="144.54" y="225.14" width="3.56" height="2.07"/><rect class="cls-4" x="182.35" y="219.5" width="8.08" height="2.07"/><rect class="cls-4" x="182.35" y="230.78" width="8.08" height="2.07"/><rect class="cls-4" x="182.35" y="219.5" width="3.56" height="13.35"/><rect class="cls-4" x="184.88" y="225.14" width="3.56" height="2.07"/><polygon class="cls-4" points="106.35 225.13 105.14 225.13 104.28 219.5 106.35 219.5 106.35 225.13"/><g class="cls-2"><path class="cls-4" d="M136.12,224.58h1.58s.5-4.54-4.8-4.54c-3.48,0-4.46,2.4-4.46,7.21,0,5,1.52,6.67,4.64,6.67,4.76,0,4.76-5.14,4.76-5.14l-1.84-.4s.16,3.5-2.12,3.5c-1.61,0-1.61-2.67-1.61-4.9s-.09-4.81,1.69-4.81,2.16,2.41,2.16,2.41" transform="translate(-0.54 -0.54)"/></g><rect class="cls-4" x="133.16" y="226.17" width="4.13" height="2.07"/><rect class="cls-4" x="155.46" y="219.5" width="3.42" height="13.35"/><rect class="cls-4" x="161.49" y="219.5" width="2.05" height="13.35"/><polygon class="cls-4" points="158.88 219.5 162.47 232.82 160.92 232.85 157.24 219.5 158.88 219.5"/><rect class="cls-4" x="204.77" y="219.5" width="3.7" height="13.89"/><g class="cls-2"><path class="cls-4" d="M208.4,232.14h1.8c2.52,0,2.54-3.82,2.54-5.24s-.08-4.88-2.65-4.88h-2l.92-2h1.53c2.92,0,4.33,3.32,4.33,6.65s-.84,7.23-4.78,7.23h-1.62Z" transform="translate(-0.54 -0.54)"/></g><rect class="cls-4" x="221.33" y="219.5" width="3.7" height="10.01"/><rect class="cls-4" x="229" y="219.5" width="2.13" height="10.01"/><g class="cls-2"><path class="cls-4" d="M225.57,227.65v2.4c0,1.14.52,2.29,1.89,2.29s2.08-.75,2.08-2.29v-2.58l2.13,1.21v1.37c0,1.49-.89,3.87-4.64,3.87s-5.16-1.78-5.16-3.87v-2.72Z" transform="translate(-0.54 -0.54)"/></g><rect class="cls-4" x="276.08" y="219.5" width="3.56" height="13.35"/><rect class="cls-4" x="273.46" y="219.5" width="8.8" height="2.03"/><rect class="cls-4" x="286.82" y="219.5" width="3.56" height="9.62"/><rect class="cls-4" x="294.19" y="219.5" width="2.05" height="9.62"/><g class="cls-2"><path class="cls-4" d="M290.92,227.35v2.31c0,1.1.49,2.2,1.81,2.2s2-.71,2-2.2v-2.47l2,1.15v1.32c0,1.43-.85,3.72-4.45,3.72s-5-1.71-5-3.72v-2.61Z" transform="translate(-0.54 -0.54)"/></g><rect class="cls-4" x="246.74" y="219.5" width="8.08" height="2.07"/><rect class="cls-4" x="246.74" y="219.5" width="3.56" height="13.35"/><rect class="cls-4" x="249.27" y="225.14" width="3.56" height="2.07"/><rect class="cls-4" x="259.23" y="219.5" width="3.56" height="9.62"/><rect class="cls-4" x="266.6" y="219.5" width="2.05" height="9.62"/><g class="cls-2"><path class="cls-4" d="M263.33,227.35v2.31c0,1.1.49,2.2,1.81,2.2s2-.71,2-2.2v-2.47l2,1.15v1.32c0,1.43-.85,3.72-4.45,3.72s-5-1.71-5-3.72v-2.61Z" transform="translate(-0.54 -0.54)"/></g><rect class="cls-4" x="301.05" y="219.5" width="3.56" height="13.35"/><g class="cls-2"><path class="cls-4" d="M304.56,226h2.57c1,0,1.59-.66,1.59-2s-.48-2.08-2.08-2.08h-2.38l.88-1.9h2.53c1.47,0,3.1,1.55,3.1,3.78s-1.11,3.94-3.26,3.94h-2.88Z" transform="translate(-0.54 -0.54)"/></g><polygon class="cls-4" points="307.63 226.41 309.76 232.82 307.81 232.85 305.57 226.41 307.63 226.41"/></g></g></svg>