<svg xmlns="http://www.w3.org/2000/svg" xmlns:xlink="http://www.w3.org/1999/xlink" viewBox="0 0 398.92 398.92"><defs><style>.cls-1{fill:none;}.cls-2{clip-path:url(#clip-path);}.cls-3{fill:#0b090d;}</style><clipPath id="clip-path" transform="translate(-0.54 -0.54)"><rect class="cls-1" width="400" height="400"/></clipPath></defs><g id="Calque_2" data-name="Calque 2"><g id="Calque_1-2" data-name="Calque 1"><g class="cls-2"><rect class="cls-1" width="398.92" height="398.92"/></g><polygon points="105.45 189.02 107.37 200.23 97.63 196.21 91.38 203.23 111.43 226.99 111.96 226.42 116.36 221.63 106.56 210.82 113.98 214.38 117.53 210.01 116.78 204.16 125.71 215.85 130.75 210.92 111.21 183.46 105.45 189.02"/><polygon points="123.56 194.32 123.9 194.89 132.77 209.68 138.5 206.81 128.85 190.79 123.56 194.32"/><g class="cls-2"><path d="M123.41,189.93a3.94,3.94,0,0,0,2.18-.76,2.91,2.91,0,0,0,1.46-2.36c0-1.57-1.34-2.66-2.46-3.51a16.31,16.31,0,0,0-2.29-1.37l-.42-.2-.34.32a4.82,4.82,0,0,0-1.41,3.55c0,2,1.06,4.27,3.28,4.33" transform="translate(-0.54 -0.54)"/><path d="M144,198.27a6.77,6.77,0,0,1,2-.26c.36,0,.69,0,.93,0a3.7,3.7,0,0,1,.14,1,3.74,3.74,0,0,1-.47,1.86c-.29.48-.6.67-.91.67s-1-.26-1.78-1.33a2.56,2.56,0,0,1-.64-1.36c0-.27.13-.42.71-.64m8.43-3.21c0-2.28-.33-6.35-3-8.94-2.13-2.09-4.25-3-6.24-3a7,7,0,0,0-3.74,1.1c-2.83,1.72-6,6.38-6,6.41l-.28.41,3.08,4,.56-.49s1.14-1,2.54-2.05,3.1-2,3.76-2h.17c1.39.05,1.62.5,1.64.94a1.18,1.18,0,0,1-.08.41s0,0-.17.18c-1,1-5.24,2.48-6,5.69a7.66,7.66,0,0,0-.13,1.47c0,3.24,1.67,7.78,5.61,8.07h.28c3.25,0,5.34-2.47,6.13-3.54l2.45,1,3-5-3.71-3.34c0-.3.05-.77.05-1.37" transform="translate(-0.54 -0.54)"/><path d="M177.56,180.33c-.35-2.14-1.58-5.59-5.38-5.61H172c-2.75.16-3.89,2.47-4.36,4-1.14-1.16-3.2-3-5.1-3.1-1.55.07-2.71,1.38-3.7,2.56a18,18,0,0,0-1.12,1.56l-2.27-2.66-6,3.47,2.88,1.94c.47.91,1.84,3.6,2.71,5.88a47.48,47.48,0,0,1,1.32,8.51c.34,3.44.54,6.52.54,6.53l0,.57,5,.61,0-.83s-.68-10.48-.67-14.88c0-.39,0-.74,0-1,.12-1.43.5-1.5.9-1.54a2,2,0,0,1,1.67,1.46c.49,2,2.61,14.88,2.62,14.89l.11.69,5.33-1-.07-.64s-1.16-11-1.31-12.67a5.62,5.62,0,0,1,0-.57c0-1.4.53-2.6,1-2.65l.08,0c.1,0,.49.19.82.77a5.6,5.6,0,0,1,.69,2.1c.22,1.83,1.53,12.11,1.53,12.11l.09.72,5.75-1.05-.1-.66s-2.47-17.34-2.84-19.49" transform="translate(-0.54 -0.54)"/></g><polygon points="180.73 186.41 181.43 186.5 188.02 187.32 188.13 183.06 181.29 182.53 180.73 186.41"/><g class="cls-2"><path d="M200.28,192.48Zm0-.69h-.09c-1.78.05-2.79-1.92-2.85-3.28,0-.08,0-.17,0-.26a4.94,4.94,0,0,1,.53-2.3,2.1,2.1,0,0,1,2-1.1H200c2.3.16,2.82,1.47,2.94,2.71v.11a6,6,0,0,1-.72,2.62,2.44,2.44,0,0,1-2,1.5m.29-13.93h-.17c-5.49.19-9.06,6-9.11,10.1,0,3.91,2.31,10.2,8,10.46H200c5,0,9.3-2.6,9.48-8.55,0-.22,0-.44,0-.65,0-5.73-3-11.35-9-11.37" transform="translate(-0.54 -0.54)"/></g><polygon points="197.1 165.12 188.49 176.6 195.77 176.98 200.05 171.37 206.04 176.72 211.1 172.97 201.94 164.45 197.1 165.12"/><polygon points="212.37 181.77 212.39 182.48 212.56 188.3 222.2 187.7 221.82 181.85 212.37 181.77"/><g class="cls-2"><path d="M240.24,179.27l-4.47-1.58c.18-.51.45-1.27.79-2.06.57-1.39,1.51-2.85,2-3a2.45,2.45,0,0,1,.89-.13,19.1,19.1,0,0,1,4.12.7c1.35.35,2.43.7,2.44.7l.7.23,2-7.57-.65-.18s-6.28-1.81-10.52-1.82a7.66,7.66,0,0,0-2.6.38c-3.76,1.59-4.81,7.13-6.75,13.12-1.93,6.18-4.18,21.67-4.19,21.7l-.09.66,6.35,1.1.14-.64,3.28-15,4.87.94Z" transform="translate(-0.54 -0.54)"/><path d="M260.87,186.59a8.09,8.09,0,0,0-3.48-4.42,3.52,3.52,0,0,0-1.68-.34c-2.35,0-5.55,1.29-7,1.91l-1-4-5.25,1.72.41,3.78-4.58,16.24.61.21,6,2.14.22-.67S248.58,192.69,249,192s2.46-3.4,4-3.28h.16a2.59,2.59,0,0,1,1.82,1.52,6.72,6.72,0,0,1,.64,1.54l.34,1.3L261,187Z" transform="translate(-0.54 -0.54)"/><path d="M274.59,190.61l-6.18,9.52a11.93,11.93,0,0,1-1.26,1.05,4.69,4.69,0,0,1-2.19,1,.61.61,0,0,1-.28-.06c-.17-.08-.3-.32-.31-.88a8.69,8.69,0,0,1,.62-2.61l5.21-10-6.66-2.83-.26.65s-1,2.53-3.56,8a17.62,17.62,0,0,0-1.8,7.37,7.69,7.69,0,0,0,2.43,6.15,6.07,6.07,0,0,0,3.86,1.32,6.19,6.19,0,0,0,1-.07l-.66,1.13,6.2,3,9.19-20.56Z" transform="translate(-0.54 -0.54)"/></g><polygon points="281.95 193.31 281.7 193.95 274.84 211.28 280.96 214.7 290 196.46 281.95 193.31"/><g class="cls-2"><path d="M292.29,186.29Zm-3.23,6.26a4.52,4.52,0,0,0,2.41.85c2.11-.05,2.88-2.13,2.89-3.86a4.5,4.5,0,0,0-1.72-3.85h0a2.21,2.21,0,0,0-1.17-.29c-1.9.06-4.4,1.57-4.52,4a3.93,3.93,0,0,0,2.11,3.17" transform="translate(-0.54 -0.54)"/><path d="M308.08,193.13,302,189.19l-.37.59L290.9,206.84c-2,3.11-2.75,5.54-2.75,7.9a13.12,13.12,0,0,0,.48,3.37c1.21,4,8.68,6.7,8.72,6.81l.56.22,3.76-6.6-1.11-.06a17.51,17.51,0,0,1-4.53-.9,1.59,1.59,0,0,1-1.21-1.7c0-.3,0-.58.05-.86s1.58-2.76,2.91-4.79c.94-1.46,1.87-2.87,2.37-3.61l4.39,2.71,3.18-5.14-4.11-3.08Z" transform="translate(-0.54 -0.54)"/><path class="cls-3" d="M161.67,231.53c-.09-.3-.17-.59-.23-.88a8.28,8.28,0,0,1-.14-.93c0-.33-.06-.7-.07-1.1s0-.89,0-1.44,0-1,0-1.43,0-.77.07-1.1a7.76,7.76,0,0,1,.14-.92c.06-.28.14-.58.23-.89a5.17,5.17,0,0,1,2.26-2.93,7,7,0,0,1,3.75-1,6.69,6.69,0,0,1,3.67.93,5.48,5.48,0,0,1,2.13,2.47.26.26,0,0,1-.11.38L170.31,224a.23.23,0,0,1-.35-.09,2.8,2.8,0,0,0-.92-1,2.66,2.66,0,0,0-1.36-.32,2.2,2.2,0,0,0-1.33.37,1.88,1.88,0,0,0-.73,1.05,2.93,2.93,0,0,0-.12.47c0,.17-.05.38-.07.63s0,.53,0,.87,0,.74,0,1.21,0,.88,0,1.23,0,.64,0,.89.05.44.07.61a3.1,3.1,0,0,0,.11.46,2.07,2.07,0,0,0,.77,1,2.5,2.5,0,0,0,1.41.36,2.65,2.65,0,0,0,1.35-.33,1.59,1.59,0,0,0,.77-.94,3.56,3.56,0,0,0,.14-1,.13.13,0,0,0-.14-.14h-1.74a.21.21,0,0,1-.24-.24v-2.65a.21.21,0,0,1,.24-.23h5.7a.21.21,0,0,1,.24.23v1.22c0,.77,0,1.45-.09,2.06a6.89,6.89,0,0,1-.33,1.65,5.54,5.54,0,0,1-2.22,3,6.72,6.72,0,0,1-3.8,1,7,7,0,0,1-3.75-1,5.21,5.21,0,0,1-2.26-2.93" transform="translate(-0.54 -0.54)"/><path class="cls-3" d="M175.85,235.17a.21.21,0,0,1-.23-.24V224a.21.21,0,0,1,.23-.24h3.47a.21.21,0,0,1,.24.24v1h0a2.68,2.68,0,0,1,1.17-1.14,3.92,3.92,0,0,1,1.78-.39,2.48,2.48,0,0,1,1.58.45.22.22,0,0,1,.11.3l-1.33,3.31c-.08.1-.19.1-.33,0a2.6,2.6,0,0,0-1.67-.45,1.2,1.2,0,0,0-1,.56,2.66,2.66,0,0,0-.33,1.43v5.85a.21.21,0,0,1-.24.24Z" transform="translate(-0.54 -0.54)"/><path class="cls-3" d="M189.05,232.63c1.19,0,1.78-.41,1.78-1.22v-.71a.12.12,0,0,0-.14-.14h-1.38c-1.07,0-1.6.36-1.6,1.08s.45,1,1.34,1m2,2.54a.21.21,0,0,1-.24-.24v-.66h0a3.28,3.28,0,0,1-1.21.86,4.76,4.76,0,0,1-1.87.32,4.92,4.92,0,0,1-1.39-.2,3.27,3.27,0,0,1-1.19-.64,3.06,3.06,0,0,1-.82-1.1,3.84,3.84,0,0,1-.31-1.58,3.61,3.61,0,0,1,.37-1.67,3.37,3.37,0,0,1,1-1.18,4.44,4.44,0,0,1,1.54-.69,7.89,7.89,0,0,1,1.94-.22h1.81a.12.12,0,0,0,.14-.14v-.31a1,1,0,0,0-.44-.91,3.68,3.68,0,0,0-1.76-.28,5.26,5.26,0,0,0-1.42.18,3.83,3.83,0,0,0-1.05.47c-.14.08-.24.06-.3-.07L184.63,225a.3.3,0,0,1,.08-.37,5.94,5.94,0,0,1,1.9-.84,10.29,10.29,0,0,1,2.53-.29,10.79,10.79,0,0,1,2.54.26,4.07,4.07,0,0,1,1.66.78,3,3,0,0,1,.92,1.33,5.68,5.68,0,0,1,.28,1.9v7.21a.21.21,0,0,1-.23.24Z" transform="translate(-0.54 -0.54)"/><path class="cls-3" d="M196.54,235.17a.21.21,0,0,1-.24-.24V224a.21.21,0,0,1,.24-.24H200a.21.21,0,0,1,.24.24v11a.21.21,0,0,1-.24.24Zm0-12.92a.21.21,0,0,1-.24-.23v-2.58a.21.21,0,0,1,.24-.24H200a.21.21,0,0,1,.24.24V222a.21.21,0,0,1-.24.23Z" transform="translate(-0.54 -0.54)"/><path class="cls-3" d="M209.05,235.17c-.16,0-.23-.08-.23-.24V228.4a1.92,1.92,0,0,0-.35-1.2,1.19,1.19,0,0,0-1-.46,1.28,1.28,0,0,0-1,.44,1.85,1.85,0,0,0-.37,1.22v6.53a.21.21,0,0,1-.23.24h-3.48a.21.21,0,0,1-.23-.24V224a.21.21,0,0,1,.23-.24h3.48a.21.21,0,0,1,.23.24v.82h0a3.11,3.11,0,0,1,1.12-.95,3.82,3.82,0,0,1,1.81-.39,4.11,4.11,0,0,1,1.69.32,3.12,3.12,0,0,1,1.17.88,3.47,3.47,0,0,1,.7,1.35,6.63,6.63,0,0,1,.22,1.72v7.21a.21.21,0,0,1-.24.24Z" transform="translate(-0.54 -0.54)"/><path class="cls-3" d="M221.09,228.17c.1,0,.15,0,.15-.14a2.24,2.24,0,0,0-.1-.71,1.49,1.49,0,0,0-1.6-1,1.85,1.85,0,0,0-1,.27,1.46,1.46,0,0,0-.57.76,1.55,1.55,0,0,0-.07.31,2.25,2.25,0,0,0,0,.4c0,.09.05.14.15.14Zm-1.36,7.28a6.27,6.27,0,0,1-3.46-.88,4.59,4.59,0,0,1-1.87-2.48,6,6,0,0,1-.28-1.13,10.39,10.39,0,0,1-.09-1.5,11.1,11.1,0,0,1,.09-1.54,6.47,6.47,0,0,1,.26-1.11,4.6,4.6,0,0,1,1.87-2.49,5.77,5.77,0,0,1,3.25-.87,6,6,0,0,1,3.37.87,4.41,4.41,0,0,1,1.79,2.44,3.66,3.66,0,0,1,.17.58c0,.21.08.45.11.72a8.63,8.63,0,0,1,.07,1c0,.36,0,.8,0,1.3,0,.16-.09.23-.26.23H218c-.1,0-.15.05-.15.14a2,2,0,0,1,0,.24.86.86,0,0,0,.06.23,1.51,1.51,0,0,0,.79.93,3,3,0,0,0,1.42.32,3.94,3.94,0,0,0,2.55-.92.24.24,0,0,1,.36,0l1.66,1.72a.18.18,0,0,1,.09.17.29.29,0,0,1-.11.18,6.38,6.38,0,0,1-2.16,1.37,7.49,7.49,0,0,1-2.82.51" transform="translate(-0.54 -0.54)"/><path class="cls-3" d="M231.12,235.45a9.07,9.07,0,0,1-3.18-.51,7.41,7.41,0,0,1-2.27-1.25.2.2,0,0,1,0-.33l1.66-2a.27.27,0,0,1,.33-.05,6.7,6.7,0,0,0,3.71,1.23,2,2,0,0,0,1.11-.24.7.7,0,0,0,.35-.59.53.53,0,0,0-.27-.47,3.58,3.58,0,0,0-1.16-.28l-1.27-.11a5.24,5.24,0,0,1-2.92-1.12,3.19,3.19,0,0,1-1-2.52,3.31,3.31,0,0,1,1.3-2.73,5.66,5.66,0,0,1,3.63-1,9.38,9.38,0,0,1,2.85.41,7.47,7.47,0,0,1,2.08,1,.25.25,0,0,1,0,.35l-1.48,1.88a.24.24,0,0,1-.35.07,6,6,0,0,0-1.45-.64,5.86,5.86,0,0,0-1.74-.25,1.69,1.69,0,0,0-.91.19.61.61,0,0,0-.29.53.53.53,0,0,0,.25.46,2.3,2.3,0,0,0,1.07.25l1.26.14a5.07,5.07,0,0,1,3.16,1.2,3.22,3.22,0,0,1,.9,2.41,3.51,3.51,0,0,1-1.42,2.89,6.34,6.34,0,0,1-3.95,1.09" transform="translate(-0.54 -0.54)"/></g></g></g></svg>