<svg xmlns="http://www.w3.org/2000/svg" xmlns:xlink="http://www.w3.org/1999/xlink" viewBox="0 0 398.92 398.92"><defs><style>.cls-1{fill:none;}.cls-2{clip-path:url(#clip-path);}.cls-3{fill:#f0047f;}</style><clipPath id="clip-path" transform="translate(-0.54 -0.54)"><rect class="cls-1" width="400" height="400"/></clipPath></defs><g id="Calque_2" data-name="Calque 2"><g id="Calque_1-2" data-name="Calque 1"><g class="cls-2"><rect class="cls-1" width="398.92" height="398.92"/><path d="M108.41,258.48a4.62,4.62,0,0,1-3.36-1.32,6.86,6.86,0,0,1,0-8.2,4.62,4.62,0,0,1,3.36-1.32,5,5,0,0,1,1.92.34,4.68,4.68,0,0,1,1.56,1.15l-1.46,1.42a2.7,2.7,0,0,0-2-1,2.26,2.26,0,0,0-1.92.87,5.58,5.58,0,0,0,0,5.3,2.26,2.26,0,0,0,1.92.87,2.32,2.32,0,0,0,1.06-.21,3.59,3.59,0,0,0,1-.79l1.46,1.39a4.56,4.56,0,0,1-3.48,1.51" transform="translate(-0.54 -0.54)"/><path d="M119,250.15a2.12,2.12,0,0,0-1.56-.61,2,2,0,0,0-1.47.53,2.35,2.35,0,0,0-.66,1.24,8.67,8.67,0,0,0-.15,1.74,9.34,9.34,0,0,0,.14,1.78A2.41,2.41,0,0,0,116,256a2.29,2.29,0,0,0,2.94,0,2.43,2.43,0,0,0,.67-1.26,8.67,8.67,0,0,0,.15-1.74,9.27,9.27,0,0,0-.13-1.77,2.15,2.15,0,0,0-.6-1.13m1.61,7.08a4.23,4.23,0,0,1-1.35.91,4.48,4.48,0,0,1-1.82.34,4.43,4.43,0,0,1-1.81-.34,4.23,4.23,0,0,1-1.42-1,3.8,3.8,0,0,1-.91-1.65,9.29,9.29,0,0,1-.27-2.44,9.45,9.45,0,0,1,.27-2.42,3.78,3.78,0,0,1,.91-1.66,4.42,4.42,0,0,1,1.41-1,4.62,4.62,0,0,1,1.82-.33,4.67,4.67,0,0,1,1.81.33,4.22,4.22,0,0,1,1.43,1,3.81,3.81,0,0,1,.91,1.65,9.29,9.29,0,0,1,.27,2.42,9.45,9.45,0,0,1-.27,2.44,4,4,0,0,1-1,1.74" transform="translate(-0.54 -0.54)"/><path d="M130.38,258.37v-6.46a2.38,2.38,0,0,0-.59-1.78,2.1,2.1,0,0,0-1.55-.59,2.18,2.18,0,0,0-1.59.6,2.33,2.33,0,0,0-.63,1.77v6.46h-2.08v-10.6H126v1.07a3.67,3.67,0,0,1,2.82-1.2,4.27,4.27,0,0,1,1.47.25,3.22,3.22,0,0,1,1.19.76,3.06,3.06,0,0,1,.77,1.25,5.49,5.49,0,0,1,.24,1.7v6.77Z" transform="translate(-0.54 -0.54)"/><path d="M138.4,258.48a8.71,8.71,0,0,1-2.49-.32,4.81,4.81,0,0,1-2-1.21l1.4-1.39a3.3,3.3,0,0,0,1.38.85,5.4,5.4,0,0,0,1.67.25,3.42,3.42,0,0,0,1.67-.36,1.2,1.2,0,0,0,.65-1.1,1.27,1.27,0,0,0-.34-.92,1.48,1.48,0,0,0-1.08-.33l-1.69-.15a3.9,3.9,0,0,1-2.34-.83,2.65,2.65,0,0,1-.79-2.09,2.84,2.84,0,0,1,1.11-2.38,4.6,4.6,0,0,1,2.87-.86,7.89,7.89,0,0,1,2.21.29,4.4,4.4,0,0,1,1.71.91l-1.33,1.35a2.88,2.88,0,0,0-1.16-.58,5.39,5.39,0,0,0-1.45-.19,2.32,2.32,0,0,0-1.43.37,1.15,1.15,0,0,0-.49,1,1.09,1.09,0,0,0,.32.82A2,2,0,0,0,138,252l1.67.14A3.9,3.9,0,0,1,142,253a2.76,2.76,0,0,1,.8,2.13,2.85,2.85,0,0,1-1.22,2.48,5.27,5.27,0,0,1-3.18.88" transform="translate(-0.54 -0.54)"/><path d="M150.61,250.76a2.06,2.06,0,0,0-.8-1,2.21,2.21,0,0,0-1.28-.37,2.27,2.27,0,0,0-1.29.36,2.12,2.12,0,0,0-.81,1,3.56,3.56,0,0,0-.27,1.44h4.74a3.6,3.6,0,0,0-.29-1.44m-4.45,2.92a3.19,3.19,0,0,0,.7,2.18,2.54,2.54,0,0,0,2,.78,3.52,3.52,0,0,0,1.42-.24,3.84,3.84,0,0,0,1.15-.84l1.36,1.27a5.84,5.84,0,0,1-1.74,1.25,5.42,5.42,0,0,1-2.23.4,4.74,4.74,0,0,1-3.48-1.28,5.59,5.59,0,0,1-1.3-4.15,6,6,0,0,1,1.21-4,4.06,4.06,0,0,1,3.28-1.44,4.13,4.13,0,0,1,3.29,1.41,5.5,5.5,0,0,1,1.2,3.69v.94Z" transform="translate(-0.54 -0.54)"/><path d="M160.79,250.25a2.67,2.67,0,0,0-.72-.53,1.91,1.91,0,0,0-.86-.18,2,2,0,0,0-1.51.65,2.49,2.49,0,0,0-.6,1.74v6.44H155v-10.6h2.09v1.15a2.67,2.67,0,0,1,1.14-.92,3.73,3.73,0,0,1,1.63-.35,4.22,4.22,0,0,1,1.39.2,3.36,3.36,0,0,1,1.14.8Z" transform="translate(-0.54 -0.54)"/></g><polygon points="166.89 257.84 165.16 257.84 161.28 247.23 163.54 247.23 166.04 254.65 168.51 247.23 170.77 247.23 166.89 257.84"/><g class="cls-2"><path d="M177.84,253.68h-2.5c-1.28,0-1.92.51-1.92,1.52s.65,1.5,2,1.5a5.12,5.12,0,0,0,1.17-.1,2.07,2.07,0,0,0,.85-.53,2.15,2.15,0,0,0,.44-1.54Zm0,4.69v-1a3.55,3.55,0,0,1-1.21.83,4.42,4.42,0,0,1-1.6.24,3.74,3.74,0,0,1-2.78-.92,3.17,3.17,0,0,1-.9-2.32,2.81,2.81,0,0,1,1-2.21,4,4,0,0,1,2.73-.83h2.81v-.75a1.92,1.92,0,0,0-.54-1.51,2.73,2.73,0,0,0-1.8-.48,3.47,3.47,0,0,0-1.37.22,2.37,2.37,0,0,0-1,.8l-1.4-1.31a4.18,4.18,0,0,1,1.6-1.18,6,6,0,0,1,2.2-.35q4.37,0,4.36,3.65v7.08Z" transform="translate(-0.54 -0.54)"/><path d="M185.54,258.37a2.71,2.71,0,0,1-2.15-.85,3.09,3.09,0,0,1-.75-2.1v-5.83h-1.21V248h1.21v-3.21h2.13V248h2v1.63h-2v5.73c0,.83.39,1.24,1.17,1.24h.88v1.81Z" transform="translate(-0.54 -0.54)"/></g><path d="M188.72,247.79h2.12v10.58h-2.12Zm-.07-4.34h2.26v2.25h-2.26Z" transform="translate(-0.54 -0.54)"/><g class="cls-2"><path d="M198.88,250.15a2.14,2.14,0,0,0-1.57-.61,2,2,0,0,0-1.46.53,2.35,2.35,0,0,0-.66,1.24,10.75,10.75,0,0,0,0,3.52,2.41,2.41,0,0,0,.67,1.21,2,2,0,0,0,1.46.54,2,2,0,0,0,1.48-.53,2.43,2.43,0,0,0,.67-1.26,8.67,8.67,0,0,0,.15-1.74,8.41,8.41,0,0,0-.14-1.77,2.13,2.13,0,0,0-.59-1.13m1.61,7.08a4.23,4.23,0,0,1-1.35.91,4.49,4.49,0,0,1-1.83.34,4.41,4.41,0,0,1-1.8-.34,4.14,4.14,0,0,1-1.42-1,3.8,3.8,0,0,1-.91-1.65,9.29,9.29,0,0,1-.27-2.44,9.45,9.45,0,0,1,.27-2.42,3.78,3.78,0,0,1,.91-1.66,4.21,4.21,0,0,1,1.41-1,4.57,4.57,0,0,1,1.81-.33,4.69,4.69,0,0,1,1.82.33,4.31,4.31,0,0,1,1.43,1,3.91,3.91,0,0,1,.91,1.65,9.29,9.29,0,0,1,.27,2.42,9.45,9.45,0,0,1-.27,2.44,4,4,0,0,1-1,1.74" transform="translate(-0.54 -0.54)"/><path d="M210.25,258.37v-6.46a2.38,2.38,0,0,0-.59-1.78,2.11,2.11,0,0,0-1.56-.59,2.21,2.21,0,0,0-1.59.6,2.37,2.37,0,0,0-.62,1.77v6.46H203.8v-10.6h2.09v1.07a3.67,3.67,0,0,1,2.82-1.2,4.27,4.27,0,0,1,1.47.25,3.31,3.31,0,0,1,1.19.76,3.06,3.06,0,0,1,.77,1.25,5.49,5.49,0,0,1,.24,1.7v6.77Z" transform="translate(-0.54 -0.54)"/><path d="M222.46,258.48a8.71,8.71,0,0,1-2.49-.32A4.84,4.84,0,0,1,218,257l1.4-1.39a3.27,3.27,0,0,0,1.37.85,5.45,5.45,0,0,0,1.67.25,3.42,3.42,0,0,0,1.67-.36,1.2,1.2,0,0,0,.65-1.1,1.23,1.23,0,0,0-.34-.92,1.48,1.48,0,0,0-1.08-.33l-1.69-.15a3.9,3.9,0,0,1-2.34-.83,2.65,2.65,0,0,1-.79-2.09,2.82,2.82,0,0,1,1.12-2.38,4.58,4.58,0,0,1,2.87-.86,7.94,7.94,0,0,1,2.21.29,4.55,4.55,0,0,1,1.71.91l-1.34,1.35a2.82,2.82,0,0,0-1.16-.58,5.29,5.29,0,0,0-1.45-.19,2.29,2.29,0,0,0-1.42.37,1.16,1.16,0,0,0-.5,1,1.06,1.06,0,0,0,.33.82,2,2,0,0,0,1.14.39l1.66.14a3.88,3.88,0,0,1,2.35.86,2.73,2.73,0,0,1,.81,2.13,2.88,2.88,0,0,1-1.22,2.48,5.33,5.33,0,0,1-3.19.88" transform="translate(-0.54 -0.54)"/><path d="M234.11,250.15a2.16,2.16,0,0,0-1.57-.61,2,2,0,0,0-1.46.53,2.36,2.36,0,0,0-.67,1.24,9.56,9.56,0,0,0-.14,1.74,9.46,9.46,0,0,0,.13,1.78,2.43,2.43,0,0,0,.68,1.21,2.27,2.27,0,0,0,2.93,0,2.44,2.44,0,0,0,.68-1.26,8.67,8.67,0,0,0,.15-1.74,9.15,9.15,0,0,0-.14-1.77,2.2,2.2,0,0,0-.59-1.13m1.6,7.08a4.08,4.08,0,0,1-1.34.91,4.49,4.49,0,0,1-1.83.34,4.41,4.41,0,0,1-1.8-.34,4.14,4.14,0,0,1-1.42-1,3.7,3.7,0,0,1-.91-1.65,9.29,9.29,0,0,1-.27-2.44,9.45,9.45,0,0,1,.27-2.42,3.68,3.68,0,0,1,.91-1.66,4.21,4.21,0,0,1,1.41-1,4.57,4.57,0,0,1,1.81-.33,4.73,4.73,0,0,1,1.82.33,4.31,4.31,0,0,1,1.43,1,3.91,3.91,0,0,1,.91,1.65,9.29,9.29,0,0,1,.27,2.42,9.45,9.45,0,0,1-.27,2.44,3.88,3.88,0,0,1-1,1.74" transform="translate(-0.54 -0.54)"/><path d="M245.42,258.37v-1.06a3.72,3.72,0,0,1-2.82,1.17,4.28,4.28,0,0,1-1.47-.24,3.45,3.45,0,0,1-1.19-.76,3.14,3.14,0,0,1-.77-1.26,5.38,5.38,0,0,1-.24-1.69v-6.76h2.13v6.45a2.37,2.37,0,0,0,.59,1.77,2.11,2.11,0,0,0,1.56.59,2.21,2.21,0,0,0,1.59-.6,2.33,2.33,0,0,0,.62-1.76v-6.45h2.09v10.6Z" transform="translate(-0.54 -0.54)"/><path d="M253.5,258.48a8.78,8.78,0,0,1-2.5-.32,4.84,4.84,0,0,1-1.95-1.21l1.4-1.39a3.3,3.3,0,0,0,1.38.85,5.4,5.4,0,0,0,1.67.25,3.44,3.44,0,0,0,1.67-.36,1.19,1.19,0,0,0,.64-1.1,1.26,1.26,0,0,0-.33-.92,1.51,1.51,0,0,0-1.09-.33l-1.69-.15a3.85,3.85,0,0,1-2.33-.83,2.65,2.65,0,0,1-.8-2.09,2.82,2.82,0,0,1,1.12-2.38,4.58,4.58,0,0,1,2.87-.86,7.89,7.89,0,0,1,2.21.29,4.55,4.55,0,0,1,1.71.91l-1.33,1.35a3,3,0,0,0-1.16-.58,5.39,5.39,0,0,0-1.45-.19,2.32,2.32,0,0,0-1.43.37,1.15,1.15,0,0,0-.49,1,1.06,1.06,0,0,0,.32.82,2,2,0,0,0,1.14.39l1.67.14a3.9,3.9,0,0,1,2.35.86,2.76,2.76,0,0,1,.8,2.13,2.88,2.88,0,0,1-1.22,2.48,5.32,5.32,0,0,1-3.18.88" transform="translate(-0.54 -0.54)"/></g><polygon points="267.4 257.84 265.67 257.84 261.79 247.23 264.05 247.23 266.54 254.65 269.02 247.23 271.28 247.23 267.4 257.84"/><path d="M272.86,247.79H275v10.58h-2.13Zm-.06-4.34h2.25v2.25H272.8Z" transform="translate(-0.54 -0.54)"/><g class="cls-2"><path d="M281.42,249.54a1.78,1.78,0,0,0-1.78.93,7.71,7.71,0,0,0,0,5.19,2.17,2.17,0,0,0,3.55,0,7.9,7.9,0,0,0,0-5.2,1.77,1.77,0,0,0-1.77-.92m2.21,8.81v-1.12a3.32,3.32,0,0,1-1.22,1,4.12,4.12,0,0,1-1.57.28,4.36,4.36,0,0,1-1.47-.24,3.46,3.46,0,0,1-1.25-.83,3.37,3.37,0,0,1-.82-1.74,12.92,12.92,0,0,1-.24-2.62,10.18,10.18,0,0,1,.31-2.93,4.26,4.26,0,0,1,1.07-1.72,3.32,3.32,0,0,1,2.4-.75,4.11,4.11,0,0,1,1.56.26,3.09,3.09,0,0,1,1.23.93v-5.35h2.09v14.86Z" transform="translate(-0.54 -0.54)"/><path d="M294.32,250.76a2.12,2.12,0,0,0-.8-1,2.24,2.24,0,0,0-1.28-.37,2.27,2.27,0,0,0-1.29.36,2.12,2.12,0,0,0-.81,1,3.56,3.56,0,0,0-.27,1.44h4.74a3.6,3.6,0,0,0-.29-1.44m-4.45,2.92a3.14,3.14,0,0,0,.7,2.18,2.54,2.54,0,0,0,2,.78,3.52,3.52,0,0,0,1.42-.24,4,4,0,0,0,1.15-.84l1.36,1.27a5.87,5.87,0,0,1-1.75,1.25,5.34,5.34,0,0,1-2.22.4A4.74,4.74,0,0,1,289,257.2a5.59,5.59,0,0,1-1.3-4.15,6,6,0,0,1,1.21-4,4.06,4.06,0,0,1,3.28-1.44,4.13,4.13,0,0,1,3.29,1.41,5.5,5.5,0,0,1,1.2,3.69v.94Z" transform="translate(-0.54 -0.54)"/><path d="M295.19,156.08h0c0-14.26-15.38-14.26-15.38-14.26v14.26c0-14.26-15.38-14.26-15.38-14.26v14.26c0,14.27,15.38,14.27,15.38,14.27,0,14.26,15.38,14.26,15.38,14.26V156.08Z" transform="translate(-0.54 -0.54)"/><path d="M246.51,141.82v14.37c-14.61,0-15.34,12.87-15.38,14.16v.1c.08,14.16,15.38,14.16,15.38,14.16,15.38,0,15.38-14.26,15.38-14.26V156.08c0-14.26-15.38-14.26-15.38-14.26" transform="translate(-0.54 -0.54)"/><path d="M103.28,155.9v14.27c0,14.26,15.38,14.26,15.38,14.26V170.06C134,170.06,134,155.8,134,155.8H120.85C134,154.51,134,141.64,134,141.64H118.66c-15.38,0-15.38,14.26-15.38,14.26" transform="translate(-0.54 -0.54)"/><path class="cls-3" d="M181.46,162.93c0,11.83-10.34,21.41-23.08,21.41s-23.08-9.58-23.08-21.41,10.33-21.41,23.08-21.41,23.08,9.58,23.08,21.41" transform="translate(-0.54 -0.54)"/><path class="cls-3" d="M229.66,162.93c0,11.83-10.34,21.41-23.08,21.41s-23.09-9.58-23.09-21.41,10.34-21.41,23.09-21.41,23.08,9.58,23.08,21.41" transform="translate(-0.54 -0.54)"/><path d="M118,207.47h0c-15.38,0-14.66,14.26-14.66,14.26h13.94c15.38,0,15.38-14.26,15.38-14.26Z" transform="translate(-0.54 -0.54)"/><path d="M279.81,193.49v14.37c-14.6,0-15.34,12.88-15.37,14.16v.1c.07,14.16,15.37,14.16,15.37,14.16,15.37,0,15.37-14.26,15.37-14.26V207.75c0-14.26-15.37-14.26-15.37-14.26" transform="translate(-0.54 -0.54)"/><path d="M136.59,207.57v14.27c0,14.26,15.37,14.26,15.37,14.26V221.73c15.39,0,15.39-14.26,15.39-14.26H154.16c13.19-1.29,13.19-14.16,13.19-14.16H152c-15.37,0-15.37,14.26-15.37,14.26" transform="translate(-0.54 -0.54)"/><path class="cls-3" d="M214.76,214.6c0,11.83-10.34,21.42-23.08,21.42s-23.09-9.59-23.09-21.42,10.34-21.41,23.09-21.41,23.08,9.59,23.08,21.41" transform="translate(-0.54 -0.54)"/><path class="cls-3" d="M263,214.6c0,11.83-10.33,21.42-23.08,21.42s-23.09-9.59-23.09-21.42,10.34-21.41,23.09-21.41S263,202.78,263,214.6" transform="translate(-0.54 -0.54)"/></g></g></g></svg>