<svg xmlns="http://www.w3.org/2000/svg" xmlns:xlink="http://www.w3.org/1999/xlink" viewBox="0 0 398.92 398.92"><defs><style>.cls-1{fill:none;}.cls-2{clip-path:url(#clip-path);}</style><clipPath id="clip-path" transform="translate(-0.54 -0.54)"><rect class="cls-1" width="400" height="400"/></clipPath></defs><g id="Calque_2" data-name="Calque 2"><g id="Calque_1-2" data-name="Calque 1"><g class="cls-2"><rect class="cls-1" width="398.92" height="398.92"/></g><path d="M273.49,238.07h11.42V196.31h-7.79v37.16l-3.62,3.15Zm28.45,0V196.31h-7.79v37.16l-3.62,3.15v1.45Z" transform="translate(-0.54 -0.54)"/><g class="cls-2"><path d="M257.43,225.53v-.05H257c-7.52,0-12.41.79-12.41,6.52,0,5.24,3.9,6.63,8,6.63a9.56,9.56,0,0,0,3.74-.69v0a3,3,0,0,1-.9.15c-1.83,0-2.67-2.95-2.67-6.24,0-3.46,1.29-6,4.7-6.3" transform="translate(-0.54 -0.54)"/></g><polygon points="205.15 211.03 197.27 211.03 197.3 232.93 193.68 236.09 193.68 237.53 205.14 237.53 205.15 211.03"/><g class="cls-2"><path d="M228.28,211.38c1.89.94,2.63,3.31,2.63,7.76v14.33l-3.06,3.15v1.45h10.93l0-17.76c0-6.85-3.34-9.3-8.07-9.3-2,0-2.41.37-2.41.37" transform="translate(-0.54 -0.54)"/><path d="M211.47,211.38c1.9.94,2.63,3.31,2.63,7.76v14.33L211,236.62v1.45H222l0-17.76c0-6.85-3.34-9.3-8.07-9.3-2,0-2.41.37-2.41.37" transform="translate(-0.54 -0.54)"/><path d="M190.32,219.29v-8.4h-8.61v0c3.7.3,7,4,8.49,8.37Z" transform="translate(-0.54 -0.54)"/><path d="M180.9,238.05a10.13,10.13,0,0,1-9.5-8.49h-.16v8.51h9.66Z" transform="translate(-0.54 -0.54)"/><path d="M191.93,229.55c0-6.57-4.9-8-9.3-9-3.73-.83-7-1.44-7-4.4A5.2,5.2,0,0,1,179.8,211v-.05a8.58,8.58,0,0,0-8.3,9c0,6,4.95,7.29,9.41,8.3,4,.94,7,1.5,7,4.56a5.09,5.09,0,0,1-5.06,5.26h0c5.85-.21,9.12-3,9.12-8.5" transform="translate(-0.54 -0.54)"/><path d="M254.77,211.1c-5.37.38-8.89,2.61-8.89,6.54,0,2.45,1.22,4.07,3.9,4.07,2.28,0,4-1.39,4-3.73a6.21,6.21,0,0,0-.45-2.34h-1.5a3.85,3.85,0,0,1-.17-1.11,3.92,3.92,0,0,1,3.1-3.4Z" transform="translate(-0.54 -0.54)"/><path d="M271.87,230.39h-.15c-.39,4.46-1.57,5.22-2.68,5.22s-1.73-.78-1.73-3.12v-11c0-7.94-3-10.39-10.63-10.47v0c2.28.54,2.84,5.83,2.84,9.59v4.81s0,7.29.21,9.16c.56,2.62,2.62,4,6.35,4,4.34,0,5.5-2.1,5.78-8.23" transform="translate(-0.54 -0.54)"/><path d="M216.36,142.44a4.48,4.48,0,1,0-4.48,4.48,4.48,4.48,0,0,0,4.48-4.48" transform="translate(-0.54 -0.54)"/><path d="M240.25,151.11c1.89.95,2.63,3.31,2.63,7.76V173.2l-3.06,3.16v1.44h10.9V160c0-6.84-3.34-9.29-8.07-9.29-2,0-2.41.36-2.41.36" transform="translate(-0.54 -0.54)"/><path d="M233.25,151.3h-7.82l0,21.9-3.62,3.16v1.44h11.47Zm-28.51,0v.43h3.73V177.8h7.87l0-26.5Zm-18,19.49c0,6,3.51,7.57,8.35,7.57,6.35,0,8.08-4,8.58-8.35l-.22,0c-.5,3.79-3.07,5.84-5.74,5.84-2.45,0-3.06-1.62-3.06-4.79V151.73h11.85v-.43H194.61v-9.18l-7.91,2v4l-3.62,3.15v1.45h3.62Z" transform="translate(-0.54 -0.54)"/></g><polygon points="270.25 172.76 262.42 150.76 253.96 150.76 264.49 177.26 268.43 177.26 270.25 172.76"/><g class="cls-2"><path d="M260.43,201.28c-2,5.73-4,8.85-8.05,8.85-1.34,0-2-.56-2-1.39a2.93,2.93,0,0,1,.33-1.28h1.84a7.59,7.59,0,0,0,.33-2c0-2.28-1.5-3.28-3.67-3.28s-3.9,1.56-3.9,4.34,2.06,5.23,6.23,5.23c4.4,0,6.3-2.22,9-9.41l18.64-51h-6.49v1.45H278Z" transform="translate(-0.54 -0.54)"/></g><polyline points="276.39 155.95 272.1 152.21 272.1 150.76 278.41 150.76 276.54 155.67"/><polygon points="116.75 206.81 124.62 206.81 124.61 180.31 116.75 180.31 116.75 206.81"/><g class="cls-2"><path d="M154.4,180.83H141.53v-9.18l-7.91,2v4L130,180.83v1.45h3.62v18c0,6,3.51,7.57,8.35,7.57,6.35,0,8.08-4,8.58-8.35l-.22,0c-.5,3.79-3.07,5.84-5.74,5.84-2.45,0-3.06-1.61-3.06-4.79V181.26H154.4" transform="translate(-0.54 -0.54)"/><path d="M168.71,180.83h-7.42v-9.18l-7.91,2v26.67c0,6,3.51,7.57,8.35,7.57,6.35,0,8.07-4,8.57-8.35l-.21,0c-.5,3.79-3.07,5.84-5.74,5.84-2.45,0-3.06-1.61-3.06-4.79V181.26h7.42" transform="translate(-0.54 -0.54)"/></g><polygon points="101.14 165.06 101.14 202.21 97.52 205.37 97.52 206.81 108.93 206.81 108.93 165.06 101.14 165.06"/><polygon points="174.54 165.06 174.54 202.21 170.92 205.37 170.92 206.81 182.34 206.81 182.34 165.06 174.54 165.06"/><g class="cls-2"><path d="M213.33,199.43l-.28,0c-1.12,4.17-4.84,6.49-9.07,6.49-5.68,0-7.18-4.18-7.18-11.42V192c.15-6.83,1.54-11.11,4.27-11.63v0c-7.16.42-12.57,4.74-12.57,13.92,0,8.07,4.18,13.64,13.36,13.64,7.52,0,10.36-3.79,11.47-8.46" transform="translate(-0.54 -0.54)"/><path d="M213.47,192.5V192h0c.17-7.87-3.39-11.56-10.95-11.69v0c2.71.39,3.37,4.9,3.26,11.66h-9.62v.49Z" transform="translate(-0.54 -0.54)"/><path d="M125.45,171.89a4.48,4.48,0,1,0-4.48,4.48,4.47,4.47,0,0,0,4.48-4.48" transform="translate(-0.54 -0.54)"/></g><rect x="97.52" y="213.88" width="67.88" height="7.73"/><rect x="219.39" y="184.3" width="39.4" height="7.73"/></g></g></svg>