<svg xmlns="http://www.w3.org/2000/svg" xmlns:xlink="http://www.w3.org/1999/xlink" viewBox="0 0 398.92 398.92"><defs><style>.cls-1,.cls-3,.cls-4,.cls-5{fill:none;}.cls-2{clip-path:url(#clip-path);}.cls-3,.cls-4{stroke:#000;}.cls-3,.cls-4,.cls-5{stroke-width:1.52px;}.cls-4{stroke-linejoin:round;}.cls-5{stroke:#818921;}</style><clipPath id="clip-path" transform="translate(-0.54 -0.54)"><rect class="cls-1" width="400" height="400"/></clipPath></defs><g id="Calque_2" data-name="Calque 2"><g id="Calque_1-2" data-name="Calque 1"><g class="cls-2"><rect class="cls-1" width="398.92" height="398.92"/></g><line class="cls-3" x1="291.86" y1="232.61" x2="270.27" y2="232.61"/><line class="cls-3" x1="291.86" y1="236.68" x2="270.27" y2="236.68"/><line class="cls-3" x1="281.08" y1="261.11" x2="281.08" y2="236.99"/><polyline class="cls-4" points="151.6 232.6 132.63 232.6 143.27 246.25 132.63 260.82 151.8 260.82"/><g class="cls-2"><path class="cls-4" d="M244.5,261.65,224,233.14h12c3.2,0,8.22,1.14,8.22,7.9,0,4.94-3.24,7.74-8.85,7.74H224v12.57" transform="translate(-0.54 -0.54)"/><path class="cls-3" d="M205.62,261a13.8,13.8,0,1,0-13.79-13.79A13.79,13.79,0,0,0,205.62,261Z" transform="translate(-0.54 -0.54)"/></g><polyline class="cls-4" points="252.55 230.66 257.68 225.12 262.92 230.66"/><polyline class="cls-4" points="266.54 232.6 247.57 232.6 258.21 246.25 247.57 260.82 266.73 260.82"/><line class="cls-4" x1="187.91" y1="232.61" x2="170.23" y2="232.61"/><polyline class="cls-4" points="187.91 243.86 170.21 243.86 170.21 260.8"/><polygon class="cls-4" points="108.95 260.82 119 260.82 129.5 251.16 129.5 241.54 119.08 232.6 108.95 232.6 108.95 260.82"/><line class="cls-3" x1="298.95" y1="182.43" x2="277.36" y2="182.43"/><line class="cls-3" x1="298.95" y1="186.5" x2="277.36" y2="186.5"/><line class="cls-3" x1="288.17" y1="210.93" x2="288.17" y2="186.82"/><polyline class="cls-4" points="274.01 203.62 253.93 182.42 253.93 210.62"/><polyline class="cls-4" points="274.02 182.44 274.02 210.64 253.94 189.44"/><polygon class="cls-4" points="237.43 182.42 225.2 210.64 249.59 210.64 237.43 182.42"/><polyline class="cls-4" points="206.06 182.44 206.06 210.64 223.8 210.64"/><polyline class="cls-4" points="185.71 182.44 185.71 210.64 203.44 210.64"/><line class="cls-4" x1="178.39" y1="182.44" x2="178.39" y2="210.62"/><line class="cls-4" x1="174.09" y1="182.43" x2="152.5" y2="182.43"/><line class="cls-4" x1="174.09" y1="186.5" x2="152.5" y2="186.5"/><line class="cls-4" x1="163.29" y1="210.93" x2="163.29" y2="186.82"/><path class="cls-4" d="M139.38,181l5.29-5.53m5.89,7.5h-19l10.64,13.65-10.64,14.56h19.16" transform="translate(-0.54 -0.54)"/><g class="cls-2"><path class="cls-4" d="M119.08,198.7,107.65,183h12c3.2,0,8.22,1.14,8.22,7.9,0,4.94-3.24,7.74-8.85,7.74H107.65v12.56" transform="translate(-0.54 -0.54)"/></g><path class="cls-5" d="M197.56,146.78l8.75-10.28m-17.49,0,8.74,10.28m-7.22-18.62-1.52,8.34m8.74,10.28-8.74-10.28m1.52-8.34,7.22,4.17v14.45m7.23-18.62,1.52,8.34m-8.75,10.28,8.75-10.28m-8.75,10.28V132.33l7.23-4.17m0,0-7.23,4.17m-7.22-4.17,7.22,4.17m0,14.45V132.33m-7.22-4.17,7.22-9.36,7.23,9.36,1.52,8.34-8.75,10.28-8.74-10.28Z" transform="translate(-0.54 -0.54)"/><path class="cls-5" d="M190.63,154.94l-.31-5m-4.63,4.48,4.94.48M184,151.86l1.74,2.6m4.94.48-4.94-.48m-1.74-2.6,3-.75,3.69,3.83m-2.85-6.78,2.54,1.82m.31,5-.31-5m.31,5-3.69-3.83.84-3m0,0-.84,3m-3,.75,3-.75m3.69,3.83-3.69-3.83m-3,.75-.48-4.33,4.31.63,2.54,1.82.31,5-4.94-.48Z" transform="translate(-0.54 -0.54)"/><path class="cls-5" d="M208.05,148.11l7.31-.59m-6.72-6.72-.59,7.31m4.38-9.93-3.79,2.62m-.59,7.31.59-7.31m3.79-2.62,1.17,4.38-5.55,5.55m9.93-4.38-2.62,3.79m-7.31.59,7.31-.59m-7.31.59,5.55-5.55,4.38,1.17m0,0-4.38-1.17m-1.17-4.38,1.17,4.38m-5.55,5.55,5.55-5.55m-1.17-4.38,6.37-.82-.82,6.37-2.62,3.79-7.31.59.59-7.31Z" transform="translate(-0.54 -0.54)"/><line class="cls-5" x1="197" y1="146.17" x2="197" y2="167.21"/><line class="cls-5" x1="190.11" y1="154.43" x2="196.93" y2="161.51"/><line class="cls-5" x1="207.55" y1="147.5" x2="197.03" y2="158.02"/></g></g></svg>