<svg xmlns="http://www.w3.org/2000/svg" xmlns:xlink="http://www.w3.org/1999/xlink" viewBox="0 0 398.92 398.92"><defs><style>.cls-1{fill:none;}.cls-2{clip-path:url(#clip-path);}.cls-3{fill:#fd3818;}.cls-4{fill:#6fac3b;}</style><clipPath id="clip-path" transform="translate(-0.54 -0.54)"><rect class="cls-1" width="400" height="400"/></clipPath></defs><g id="Calque_2" data-name="Calque 2"><g id="Calque_1-2" data-name="Calque 1"><g class="cls-2"><rect class="cls-1" width="398.92" height="398.92"/><path class="cls-3" d="M242.2,165.79a4,4,0,1,0-4-4,4,4,0,0,0,4,4" transform="translate(-0.54 -0.54)"/><path class="cls-3" d="M218.61,191a4,4,0,1,0-4-4,4,4,0,0,0,4,4" transform="translate(-0.54 -0.54)"/><path class="cls-4" d="M131.78,192.24V185.7h-2.7a1.4,1.4,0,0,1-1.56-1.56V158.52h-7.77v26.19c0,3.5,2.28,7.53,7.91,7.53Z" transform="translate(-0.54 -0.54)"/><path class="cls-4" d="M280.3,192.33v-34h-8.36v17.1l-10.89-17.1h-7.31v34h8.36v-17.1L273,192.33Zm-87.37-23.74c0,1.33-.72,2.77-3,2.77h-5.21v-5.54h5.21c2.29,0,3,1.43,3,2.77m.48,13.23a2.81,2.81,0,0,1-3.06,3h-5.64v-6h5.64a2.78,2.78,0,0,1,3.06,3m8.36.48a7.91,7.91,0,0,0-4.21-7.41,8.17,8.17,0,0,0,3.73-6.73c0-5.88-3.77-9.84-10.84-9.84h-14.1v34h14.81c6.07,0,10.61-3.54,10.61-10m-41.94,10v-7.45H145.07v-6h12.61v-7.45H145.07v-5.68h14.76v-7.45H136.71v34Zm-28,0v-6.59h-2.73a1.41,1.41,0,0,1-1.57-1.58V158.32H119.7v26.41c0,3.54,2.3,7.6,8,7.6Z" transform="translate(-0.54 -0.54)"/></g><rect class="cls-4" x="237.48" y="166.64" width="8.36" height="25.14"/><polygon class="cls-4" points="233.77 191.7 225.08 191.7 218.07 173.49 211.02 191.7 202.38 191.7 214.94 157.69 221.16 157.69 233.77 191.7"/><g class="cls-2"><path class="cls-3" d="M132.86,205.63a4,4,0,1,0-4-4,4,4,0,0,0,4,4" transform="translate(-0.54 -0.54)"/><path class="cls-4" d="M268,214.82v-7.45H242.92v7.45h8.36v26.56h8.36V214.82Zm-102.37,3.49a3.44,3.44,0,0,1-3.63,3.44h-4.73v-6.88H162a3.44,3.44,0,0,1,3.63,3.44m10.18,23.07-7.36-14.19a9.78,9.78,0,0,0,5.54-8.88c0-5.59-4.06-10.94-11.61-10.94H148.91v34h8.36V228.72h2.82l6,12.66Zm-67.21-17c0,5.78-.24,6.68-.91,7.64a4.32,4.32,0,0,1-4,1.91H100V214.82h3.68a4.35,4.35,0,0,1,4,1.91c.67,1,.91,1.91.91,7.65m8.36,0c0-5.35.43-9.7-3.54-13.67a12.65,12.65,0,0,0-9.17-3.34H91.64v34h12.61a12.65,12.65,0,0,0,9.17-3.34c4-4,3.54-8.31,3.54-13.66" transform="translate(-0.54 -0.54)"/></g><rect class="cls-4" x="270.9" y="215.7" width="8.36" height="25.14"/><rect class="cls-4" x="178.08" y="215.7" width="8.36" height="25.14"/><g class="cls-2"><path class="cls-3" d="M275.62,214.84a4,4,0,1,0-4-4,4,4,0,0,0,4,4" transform="translate(-0.54 -0.54)"/><path class="cls-3" d="M182.8,214.84a4,4,0,1,0-4-4,4,4,0,0,0,4,4" transform="translate(-0.54 -0.54)"/></g><polygon class="cls-4" points="143.88 240.84 143.88 233.39 129.12 233.39 129.12 227.42 141.74 227.42 141.74 219.97 129.12 219.97 129.12 214.28 143.88 214.28 143.88 206.83 120.76 206.83 120.76 240.84 143.88 240.84"/><polygon class="cls-4" points="217.16 206.83 208.47 206.83 202.83 225.84 197.1 206.83 188.45 206.83 199.68 240.84 205.88 240.84 217.16 206.83"/><g class="cls-2"><path class="cls-3" d="M230.19,240.11a4,4,0,1,0-4-4,4,4,0,0,0,4,4" transform="translate(-0.54 -0.54)"/></g><polygon class="cls-4" points="245.35 240.84 236.66 240.84 229.65 222.64 222.6 240.84 213.95 240.84 226.52 206.83 232.73 206.83 245.35 240.84"/><polygon class="cls-4" points="307.82 214.28 307.82 206.83 284.7 206.83 284.7 240.84 293.06 240.84 293.06 227.71 305.67 227.71 305.67 220.26 293.06 220.26 293.06 214.28 307.82 214.28"/></g></g></svg>