<svg xmlns="http://www.w3.org/2000/svg" xmlns:xlink="http://www.w3.org/1999/xlink" viewBox="0 0 398.92 398.92"><defs><style>.cls-1{fill:none;}.cls-2{clip-path:url(#clip-path);}.cls-3{fill:#245461;}</style><clipPath id="clip-path" transform="translate(-0.54 -0.54)"><rect class="cls-1" width="400" height="400"/></clipPath></defs><g id="Calque_2" data-name="Calque 2"><g id="Calque_1-2" data-name="Calque 1"><g class="cls-2"><rect class="cls-1" width="398.92" height="398.92"/><path class="cls-3" d="M169.36,172.16a17.09,17.09,0,1,0-17.08-17.09h0a17.09,17.09,0,0,0,17.08,17.09" transform="translate(-0.54 -0.54)"/><path class="cls-3" d="M163.81,110.64a7.86,7.86,0,0,1-1.12.57,6.78,6.78,0,0,1-1.39.43,8.24,8.24,0,0,1-1.65.16,7.68,7.68,0,0,1-3.1-.6,7.16,7.16,0,0,1-2.39-1.65,7.53,7.53,0,0,1-1.52-2.4,7.81,7.81,0,0,1-.54-2.9,8,8,0,0,1,.57-3.06,7.4,7.4,0,0,1,1.6-2.48,7.47,7.47,0,0,1,2.41-1.64,7.39,7.39,0,0,1,3-.59,7.58,7.58,0,0,1,2.22.31,8.54,8.54,0,0,1,1.88.83l-.45.95a7.9,7.9,0,0,0-1.66-.79,6,6,0,0,0-2-.31,6.23,6.23,0,0,0-2.51.51,6.64,6.64,0,0,0-2.08,1.44,6.78,6.78,0,0,0-1.4,2.14,7,7,0,0,0-.51,2.64,7.15,7.15,0,0,0,.46,2.55,6.09,6.09,0,0,0,1.31,2.11,6.22,6.22,0,0,0,2.05,1.43,6.66,6.66,0,0,0,2.68.51,6.26,6.26,0,0,0,2-.3,7.45,7.45,0,0,0,1.64-.77Z" transform="translate(-0.54 -0.54)"/></g><path class="cls-3" d="M171.62,105.7h6.65l.29,1h-7.19Zm-3.06,5.93L174.89,96H175l6.33,15.64h-1.16l-5.51-14,.72-.4-5.77,14.39Z" transform="translate(-0.54 -0.54)"/><g class="cls-2"><path class="cls-3" d="M192.45,104.81l4.16,6.82H195.4l-4.17-6.79Zm-2.15-.46a4.74,4.74,0,0,0,1.86-.32,2.94,2.94,0,0,0,1.76-1.93,3.86,3.86,0,0,0,.18-1.17,3.4,3.4,0,0,0-.24-1.26,3,3,0,0,0-.71-1A3.47,3.47,0,0,0,192,97.9a3.76,3.76,0,0,0-1.45-.26h-2.53v6.71Zm.13-7.7a5.92,5.92,0,0,1,1.67.24,4.72,4.72,0,0,1,1.52.76A3.72,3.72,0,0,1,194.73,99a4,4,0,0,1,.42,1.92,5.06,5.06,0,0,1-.25,1.64,3.89,3.89,0,0,1-.82,1.42,4,4,0,0,1-1.48,1,5.51,5.51,0,0,1-2.24.38H188v6.29h-1v-15Z" transform="translate(-0.54 -0.54)"/><path class="cls-3" d="M201.84,104.18a6.74,6.74,0,0,0,.51,2.58,6.65,6.65,0,0,0,1.42,2.11,6.79,6.79,0,0,0,2.09,1.42,6.61,6.61,0,0,0,5.14,0,6.59,6.59,0,0,0,2.11-1.42,6.85,6.85,0,0,0,1.43-2.11,6.62,6.62,0,0,0,.51-2.6,6.49,6.49,0,0,0-.51-2.58,6.87,6.87,0,0,0-1.43-2.14A6.65,6.65,0,0,0,211,98a6.17,6.17,0,0,0-2.57-.53,6.28,6.28,0,0,0-2.6.54,6.7,6.7,0,0,0-2.1,1.47,6.48,6.48,0,0,0-1.39,2.14,6.79,6.79,0,0,0-.5,2.56Zm-1.05,0a7.39,7.39,0,0,1,.59-3A7.79,7.79,0,0,1,203,98.75a7.58,7.58,0,0,1,2.44-1.67,7.32,7.32,0,0,1,3-.6,7.45,7.45,0,0,1,3,.6,7.69,7.69,0,0,1,2.44,1.67,7.59,7.59,0,0,1,1.66,2.45,7.16,7.16,0,0,1,.6,3,7.24,7.24,0,0,1-.6,3,7.62,7.62,0,0,1-1.66,2.43,7.55,7.55,0,0,1-5.42,2.24,7.68,7.68,0,0,1-3-.57,7.49,7.49,0,0,1-2.44-1.6,7.33,7.33,0,0,1-1.65-2.43,7.73,7.73,0,0,1-.59-3" transform="translate(-0.54 -0.54)"/></g><polygon class="cls-3" points="221.63 96.11 222.67 96.11 222.67 110.1 230.88 110.1 230.88 111.09 221.63 111.09 221.63 96.11"/><polygon class="cls-3" points="236.6 96.11 245.84 96.11 245.84 97.1 237.63 97.1 237.63 103.05 245.02 103.05 245.02 104.04 237.63 104.04 237.63 110.1 246.14 110.1 246.14 111.09 236.6 111.09 236.6 96.11"/><polygon class="cls-3" points="152.19 130.08 152.19 118.62 152.2 118.62 157.62 127.06 156.93 126.89 162.32 118.62 162.35 118.62 162.35 130.08 160.75 130.08 160.75 122.62 160.84 123.52 157.21 129.18 157.18 129.18 153.47 123.52 153.75 122.69 153.75 130.08 152.19 130.08"/><polygon class="cls-3" points="166.58 119.02 173.26 119.02 173.26 120.72 168.2 120.72 168.2 123.67 172.71 123.67 172.71 125.37 168.2 125.37 168.2 128.38 173.46 128.38 173.46 130.08 166.58 130.08 166.58 119.02"/><polygon class="cls-3" points="176.43 119.02 183.17 119.02 183.17 120.72 180.56 120.72 180.56 130.08 178.96 130.08 178.96 120.72 176.43 120.72 176.43 119.02"/><polygon class="cls-3" points="185.96 119.02 192.69 119.02 192.69 120.72 190.09 120.72 190.09 130.08 188.49 130.08 188.49 120.72 185.96 120.72 185.96 119.02"/><path class="cls-3" d="M197.79,126.52h3.43l.56,1.48H197.3Zm-2.82,4.1,4.47-11.52h.1L204,130.62h-1.84L199,121.86l1.16-.83-3.6,9.59Z" transform="translate(-0.54 -0.54)"/><polygon class="cls-3" points="206.62 119.02 209.78 127.69 208.86 127.48 211.81 119.02 213.7 119.02 209.19 130.58 204.71 119.01 206.62 119.02"/><path class="cls-3" d="M218.32,126.52h3.43l.55,1.48h-4.48Zm-2.82,4.1L220,119.1h.1l4.45,11.52h-1.84l-3.15-8.76,1.16-.83-3.59,9.59Z" transform="translate(-0.54 -0.54)"/><polygon class="cls-3" points="236 130.47 228.27 122.24 228.75 122.45 228.78 130.08 227.15 130.08 227.15 118.64 227.23 118.64 234.82 126.87 234.46 126.75 234.44 119.02 236.04 119.02 236.04 130.48 236 130.47"/><polygon class="cls-3" points="239.57 119.02 246.31 119.02 246.31 120.72 243.71 120.72 243.71 130.08 242.1 130.08 242.1 120.72 239.57 120.72 239.57 119.02"/><g class="cls-2"><path class="cls-3" d="M205.53,171.7a10.18,10.18,0,0,1-4.17-.86,9.16,9.16,0,0,1-3.26-2.39l2.41-3.49a9.8,9.8,0,0,0,2.47,1.88,4.38,4.38,0,0,0,3.32.41,2.05,2.05,0,0,0,.9-.5,1.24,1.24,0,0,0,.33-.88,1.48,1.48,0,0,0-.56-1.22,4.89,4.89,0,0,0-1.43-.75l-1.87-.61a6.73,6.73,0,0,1-3.59-2.51,6.31,6.31,0,0,1-1.1-3.59,7,7,0,0,1,.72-3,6.24,6.24,0,0,1,2.33-2.53,7.64,7.64,0,0,1,4.13-1,13.25,13.25,0,0,1,3.86.5,9.27,9.27,0,0,1,3,1.63l-2.2,3.7a8.67,8.67,0,0,0-1.77-1.15,4.73,4.73,0,0,0-1.8-.52A2.75,2.75,0,0,0,206,155a2.15,2.15,0,0,0-.81.59,1.2,1.2,0,0,0-.29.77,1.5,1.5,0,0,0,.6,1.35,4.49,4.49,0,0,0,1.64.77,20.18,20.18,0,0,1,1.95.63,7.68,7.68,0,0,1,2.29,1.23,5.34,5.34,0,0,1,1.47,1.83,5.75,5.75,0,0,1,.52,2.55,7.24,7.24,0,0,1-.85,3.41,6.5,6.5,0,0,1-2.57,2.6,8.59,8.59,0,0,1-4.39,1" transform="translate(-0.54 -0.54)"/><path class="cls-3" d="M238.1,171.84a11,11,0,0,1-5.63-1.36,8.86,8.86,0,0,1-3.5-3.75,12.12,12.12,0,0,1-1.21-5.52,10.48,10.48,0,0,1,1.41-5.38A10.89,10.89,0,0,1,233,152a10.08,10.08,0,0,1,5.27-1.42,8.84,8.84,0,0,1,6.42,2.46,12.5,12.5,0,0,1,3.26,7.12l-14.12,4.88-1.28-3.43,10.21-3.75-1.21.58a4.7,4.7,0,0,0-1.18-2,3.34,3.34,0,0,0-2.55-.88,4,4,0,0,0-2.27.65A4.28,4.28,0,0,0,234,158a7,7,0,0,0-.52,2.83,6.89,6.89,0,0,0,.62,3.1,4.33,4.33,0,0,0,1.7,1.87,4.66,4.66,0,0,0,2.41.64,4.84,4.84,0,0,0,1.85-.36,10.76,10.76,0,0,0,1.77-.95l2.57,4.7a14.32,14.32,0,0,1-3.13,1.44,10.47,10.47,0,0,1-3.18.55" transform="translate(-0.54 -0.54)"/></g><path class="cls-3" d="M174.87,197.14l3.45-6.29h5.77l-7.18,10.85Zm-.74,7.14-4.07,6.33h-5.77L171.47,200Zm11,6.33h-7l-14-19.76h7.14Z" transform="translate(-0.54 -0.54)"/><g class="cls-2"><path class="cls-3" d="M202.46,200.53a6.37,6.37,0,0,0,.58,2.78,5,5,0,0,0,1.58,2,3.72,3.72,0,0,0,2.24.72,4,4,0,0,0,2.36-.72,4.72,4.72,0,0,0,1.54-2,7.48,7.48,0,0,0,0-5.58,4.68,4.68,0,0,0-1.54-1.95,3.92,3.92,0,0,0-2.36-.72,3.66,3.66,0,0,0-2.24.72,4.92,4.92,0,0,0-1.58,1.95,6.4,6.4,0,0,0-.58,2.8m-5.86-.05a11.13,11.13,0,0,1,1.31-5.42,9.69,9.69,0,0,1,3.68-3.78,10.62,10.62,0,0,1,5.43-1.37,10.3,10.3,0,0,1,5.4,1.37,9.2,9.2,0,0,1,3.51,3.78,11.82,11.82,0,0,1,1.22,5.42,11.94,11.94,0,0,1-1.22,5.45,9.37,9.37,0,0,1-3.51,3.82,10.24,10.24,0,0,1-5.48,1.4,11.14,11.14,0,0,1-5.34-1.26,9.07,9.07,0,0,1-3.67-3.67,11.66,11.66,0,0,1-1.33-5.74" transform="translate(-0.54 -0.54)"/></g><rect class="cls-3" x="204.29" y="220.39" width="5.81" height="35.67"/><g class="cls-2"><path class="cls-3" d="M233.2,246.51a6.63,6.63,0,0,0,.58,2.78,4.91,4.91,0,0,0,1.58,2,3.77,3.77,0,0,0,2.24.73,4,4,0,0,0,2.37-.73,4.67,4.67,0,0,0,1.54-2,7.58,7.58,0,0,0,0-5.58,4.71,4.71,0,0,0-1.54-1.94,3.94,3.94,0,0,0-2.37-.73,3.77,3.77,0,0,0-2.24.73,5.06,5.06,0,0,0-1.58,1.94,6.6,6.6,0,0,0-.58,2.8Zm-5.85,0a11.11,11.11,0,0,1,1.31-5.42,9.6,9.6,0,0,1,3.67-3.78,10.6,10.6,0,0,1,5.44-1.38,10.24,10.24,0,0,1,5.4,1.38,9.27,9.27,0,0,1,3.51,3.78,11.82,11.82,0,0,1,1.22,5.42,12,12,0,0,1-1.22,5.45,9.44,9.44,0,0,1-3.51,3.82,10.33,10.33,0,0,1-5.48,1.4,11,11,0,0,1-5.34-1.27,9,9,0,0,1-3.67-3.66,11.58,11.58,0,0,1-1.33-5.74" transform="translate(-0.54 -0.54)"/><path class="cls-3" d="M168.19,283.89a6.13,6.13,0,0,0,.67,2.85,5,5,0,0,0,1.8,2,4.65,4.65,0,0,0,2.56.73,6.52,6.52,0,0,0,2.14-.34,4.9,4.9,0,0,0,1.65-1,5.52,5.52,0,0,0,1.23-1.65v-4.83a4.43,4.43,0,0,0-1.12-1.7,5.37,5.37,0,0,0-1.73-1.08,5.75,5.75,0,0,0-2.17-.39,4.81,4.81,0,0,0-2.56.7,5,5,0,0,0-1.8,1.93,5.68,5.68,0,0,0-.67,2.8ZM173.13,304a11.62,11.62,0,0,1-4.13-.63,10.72,10.72,0,0,1-2.84-1.54q-1.17-.9-2.07-1.71l3.4-4.34a17,17,0,0,0,2.22,1.83,5.79,5.79,0,0,0,3.34.88,6.36,6.36,0,0,0,2.55-.52,4.59,4.59,0,0,0,1.91-1.52,4.06,4.06,0,0,0,.73-2.48v-4.34l.21,1.13a6.27,6.27,0,0,1-2.41,2.69,8.82,8.82,0,0,1-9.11-.23,9.81,9.81,0,0,1-3.34-3.75,11.4,11.4,0,0,1-1.25-5.4,11.25,11.25,0,0,1,1.33-5.54,10.53,10.53,0,0,1,3.44-3.82,7.92,7.92,0,0,1,4.49-1.4,10,10,0,0,1,4.08.75,6.53,6.53,0,0,1,2.6,1.82l-.21.59.62-2.17h5.36v19.76a9,9,0,0,1-1.5,5.13,10.44,10.44,0,0,1-4,3.53,11.64,11.64,0,0,1-5.46,1.28" transform="translate(-0.54 -0.54)"/><path class="cls-3" d="M206.05,295a5.66,5.66,0,0,1-4.11-1.65,6.06,6.06,0,0,1-1.74-4.28V274.3H206v12.43a4.25,4.25,0,0,0,.62,2.11,2.07,2.07,0,0,0,1.83.79,3,3,0,0,0,2.22-.95,6.39,6.39,0,0,0,1.46-2.6,12.4,12.4,0,0,0,.51-3.73V274.3h5.82v19.76h-5.28l-.45-3.62.08.41a8.45,8.45,0,0,1-1.58,2.17,6.73,6.73,0,0,1-2.26,1.47,7.91,7.91,0,0,1-2.93.52" transform="translate(-0.54 -0.54)"/><path class="cls-3" d="M238.1,294.6a11,11,0,0,1-5.63-1.36,8.8,8.8,0,0,1-3.5-3.75,12.11,12.11,0,0,1-1.21-5.51,10.46,10.46,0,0,1,1.41-5.38,10.81,10.81,0,0,1,3.78-3.82,10,10,0,0,1,5.27-1.43,8.81,8.81,0,0,1,6.42,2.47,12.44,12.44,0,0,1,3.26,7.12l-14.12,4.88-1.28-3.44,10.21-3.75-1.21.59a4.74,4.74,0,0,0-1.18-2.06,3.42,3.42,0,0,0-2.55-.88,3.89,3.89,0,0,0-2.27.66,4.22,4.22,0,0,0-1.49,1.85,7,7,0,0,0-.52,2.83,6.87,6.87,0,0,0,.62,3.09,4.41,4.41,0,0,0,1.7,1.88,4.74,4.74,0,0,0,2.41.63,4.88,4.88,0,0,0,1.85-.36,9.44,9.44,0,0,0,1.77-.95l2.57,4.7a14.36,14.36,0,0,1-3.13,1.45,10.45,10.45,0,0,1-3.18.54" transform="translate(-0.54 -0.54)"/></g></g></g></svg>