<svg xmlns="http://www.w3.org/2000/svg" viewBox="0 0 447.73 447.73"><defs><style>.cls-1{fill:#121f2c;}</style></defs><g id="Calque_2" data-name="Calque 2"><g id="Calque_1-2" data-name="Calque 1"><polygon class="cls-1" points="146.97 432.49 145.6 432.49 145.6 269.87 36.83 269.87 36.83 345.03 35.45 345.03 35.45 268.5 146.97 268.5 146.97 432.49"/><polygon class="cls-1" points="331.23 419.84 329.85 419.84 329.85 238.01 370.29 238.01 370.29 392.72 368.91 392.72 368.91 239.39 331.23 239.39 331.23 419.84"/><polygon class="cls-1" points="302.14 432.9 300.77 432.9 300.77 220.63 239.03 220.63 239.03 269.21 237.65 269.21 237.65 219.25 302.14 219.25 302.14 432.9"/><polygon class="cls-1" points="154.01 435.71 152.63 435.71 152.63 214.05 106.92 214.05 106.92 413.43 105.55 413.43 105.55 212.67 154.01 212.67 154.01 435.71"/><polygon class="cls-1" points="229.76 262.44 228.38 262.44 228.38 165.83 194.08 165.83 194.08 215.73 192.71 215.73 192.71 164.45 229.76 164.45 229.76 262.44"/><path class="cls-1" d="M185.65,267.52h-1.38V230.78c0-9.05,6.34-18.79,20.28-18.79s20.4,9.74,20.4,18.79v31.86h-1.38V230.78a16.22,16.22,0,0,0-5.91-13,20.69,20.69,0,0,0-13.11-4.38c-9.1,0-18.9,5.45-18.9,17.42Z"/><path class="cls-1" d="M189.58,444.31H188.2V277.88c0-7.09-4.76-14.71-15.2-14.71-10.28,0-15.66,7.4-15.66,14.71V436.73H156V277.88c0-10.56,8.58-16.09,17-16.09,8,0,16.58,5,16.58,16.09Z"/><path class="cls-1" d="M147,433H145.6v-90.8c0-18.61-5.85-34.19-16.92-45.06a52.67,52.67,0,0,0-37.22-14.92,53.37,53.37,0,0,0-37.54,15c-11.18,10.92-17.09,26.47-17.09,45V345H35.45v-2.86c0-18.88,6.06-34.77,17.51-45.95a54.7,54.7,0,0,1,38.5-15.41,54,54,0,0,1,38.19,15.32C141,307.27,147,323.19,147,342.17Z"/><path class="cls-1" d="M54,297H52.58V195.05c0-18.88,6-34.77,17.42-46a54.21,54.21,0,0,1,38.28-15.41c26.59,0,55.21,19.2,55.21,61.36v70.12h-1.38V195.05c0-41.21-27.9-60-53.83-60a52.89,52.89,0,0,0-37.32,15c-11.12,10.92-17,26.47-17,45Z"/><path class="cls-1" d="M293.78,219.72H292.4V154.49c0-35.79-25.36-52.1-48.93-52.1-23.79,0-49.39,16.31-49.39,52.1v60.4h-1.37v-60.4c0-16.45,5.49-30.31,15.87-40.05A50.65,50.65,0,0,1,243.47,101c24.23,0,50.31,16.74,50.31,53.48Z"/><path class="cls-1" d="M331.22,419.53h-1.37V329.08c0-15.48,10.48-22.53,20.22-22.53s20.22,7.05,20.22,22.53v63.48h-1.38V329.08c0-14.53-9.77-21.15-18.84-21.15s-18.85,6.62-18.85,21.15Z"/><path class="cls-1" d="M333,238.6h-1.38V166.19c0-14.54-9.82-21.15-18.94-21.15s-18.95,6.61-18.95,21.15v10.75h-1.38V166.19c0-15.48,10.54-22.53,20.33-22.53S333,150.71,333,166.19Z"/><path class="cls-1" d="M286.22,220.08h-1.38V172.85a7.55,7.55,0,0,0-4-6.58,18.14,18.14,0,0,0-9.21-2.22c-6.91,0-14.26,3.09-14.26,8.8v46.8H256v-46.8c0-5.06,5.38-10.18,15.64-10.18a19.48,19.48,0,0,1,9.92,2.42,8.8,8.8,0,0,1,4.64,7.76Z"/><path class="cls-1" d="M279.29,440.17h-1.38V273.23c0-5.66,6.26-11.4,18.23-11.4a23.39,23.39,0,0,1,11.56,2.71c3.53,2,5.39,5,5.39,8.69V428.67h-1.38V273.23a8.6,8.6,0,0,0-4.7-7.5,22,22,0,0,0-10.87-2.52c-8.17,0-16.85,3.51-16.85,10Z"/><path class="cls-1" d="M223.87,447.73A223.86,223.86,0,0,1,65.57,65.57,223.86,223.86,0,1,1,382.16,382.16,222.36,222.36,0,0,1,223.87,447.73Zm0-446.35A222.49,222.49,0,0,0,66.54,381.19,222.49,222.49,0,0,0,381.19,66.54,221,221,0,0,0,223.87,1.38Z"/><path class="cls-1" d="M212.45,446.73h-1.37V272c0-6.61,7.4-10.18,14.37-10.18a16.73,16.73,0,0,1,9.13,2.43,8.94,8.94,0,0,1,4.25,7.75V446.34h-1.38V272a7.64,7.64,0,0,0-3.63-6.6,15.38,15.38,0,0,0-8.37-2.2c-6.3,0-13,3.08-13,8.8Z"/><path class="cls-1" d="M238.84,445.87h-1.38V272c0-5.06,5.18-10.18,15.08-10.18a18.28,18.28,0,0,1,9.57,2.42,8.87,8.87,0,0,1,4.47,7.76V442.74H265.2V272a7.55,7.55,0,0,0-3.82-6.59,16.83,16.83,0,0,0-8.84-2.21c-6.64,0-13.7,3.08-13.7,8.8Z"/></g></g></svg>